<svg xmlns="http://www.w3.org/2000/svg" width="1052" height="1052"><rect fill="#F0DB4F" width="1052" height="1052"/><path fill="#323330" d="M849.301 651.759h-141.561s-37.517 44.262-44.554 52.764c-37.214 44.834-43.954 56.857-45.136 60.084.297-3.227-1.177-15.25-17.001-60.681-4.389-12.311-17.878-52.168-17.878-52.168h-48.355v-.291l-117.826.291h-88.508l-9.09 37.52 67.118.289h15.53c43.086 0 69.477 17.292 62.143 47.781-7.916 33.41-45.73 48.067-85.581 48.067h-14.953l19.345-82.063h-66.818l-28.435 119.871h94.965c71.213 0 139.222-37.517 150.951-85.875 2.339-8.799 2.048-30.783-3.527-43.966 0-.588-.293-.882-.58-2.053-.301-.291-.591-2.347.58-2.633.591-.294 1.768.871 2.059 1.168.58 1.465.877 2.639.877 2.639l60.375 170.582 153.875-173.515h80.603c43.086 0 69.471 17.292 62.429 47.781-8.205 33.41-46.016 48.067-85.872 48.067h-14.947l19.342-82.063h-66.827l-28.424 119.871h94.959c71.224 0 139.519-37.517 150.945-85.875 11.723-48.069-38.694-85.589-110.207-85.589zm-253.524 211.909c-180.546 0-326.804 20.813-326.804 46.307 0 25.794 146.259 46.307 326.804 46.307 180.54 0 327.088-20.514 327.088-46.307 0-25.494-146.547-46.307-327.088-46.307zm-11.726 62.717c-41.332 0-74.74-7.028-74.74-15.53 0-8.491 33.408-15.244 74.74-15.244 41.327 0 74.74 6.754 74.74 15.244 0 8.502-33.413 15.53-74.74 15.53z"/></svg>